<mxfile host="65bd71144e">
    <diagram id="XCu6zqTpxsgJFOtMJbBU" name="Page-1">
        <mxGraphModel dx="518" dy="475" grid="1" gridSize="10" guides="1" tooltips="1" connect="1" arrows="1" fold="1" page="1" pageScale="1" pageWidth="850" pageHeight="1100" math="0" shadow="0">
            <root>
                <mxCell id="0"/>
                <mxCell id="1" parent="0"/>
                <mxCell id="6" value="" style="edgeStyle=none;html=1;" edge="1" parent="1" source="3" target="5">
                    <mxGeometry relative="1" as="geometry">
                        <Array as="points">
                            <mxPoint x="155" y="300"/>
                        </Array>
                    </mxGeometry>
                </mxCell>
                <mxCell id="3" value="AIm:&lt;br&gt;A Machine Learning App&amp;nbsp;&lt;div&gt;Helping to Selected the Best Learning model based on the&amp;nbsp; Regression and Classification&amp;nbsp;&lt;br&gt;Fine&amp;nbsp; Tunning Model&lt;/div&gt;" style="rounded=1;whiteSpace=wrap;html=1;fillColor=#e1d5e7;strokeColor=#9673a6;fillStyle=solid;" vertex="1" parent="1">
                    <mxGeometry width="310" height="210" as="geometry"/>
                </mxCell>
                <mxCell id="10" value="" style="edgeStyle=none;html=1;" edge="1" parent="1" source="5" target="9">
                    <mxGeometry relative="1" as="geometry"/>
                </mxCell>
                <mxCell id="5" value="" style="shape=singleArrow;whiteSpace=wrap;html=1;arrowWidth=0.4;arrowSize=0.4;fillColor=#e1d5e7;strokeColor=#9673a6;rounded=1;fillStyle=solid;direction=south;" vertex="1" parent="1">
                    <mxGeometry x="120" y="230" width="60" height="140" as="geometry"/>
                </mxCell>
                <mxCell id="12" value="" style="edgeStyle=none;html=1;" edge="1" parent="1" source="9" target="11">
                    <mxGeometry relative="1" as="geometry"/>
                </mxCell>
                <mxCell id="9" value="TASK 1:&lt;div&gt;Load The Data&lt;br&gt;Upload the Data&lt;/div&gt;" style="whiteSpace=wrap;html=1;fillColor=#e1d5e7;strokeColor=#9673a6;rounded=1;fillStyle=solid;" vertex="1" parent="1">
                    <mxGeometry x="5" y="390" width="360" height="100" as="geometry"/>
                </mxCell>
                <mxCell id="14" value="" style="edgeStyle=none;html=1;" edge="1" parent="1" source="11" target="13">
                    <mxGeometry relative="1" as="geometry"/>
                </mxCell>
                <mxCell id="11" value="Example Data Button&lt;div&gt;&lt;font color=&quot;#000000&quot;&gt;&lt;br&gt;&lt;/font&gt;&lt;div&gt;&lt;br&gt;&lt;/div&gt;&lt;/div&gt;" style="whiteSpace=wrap;html=1;fillColor=#e1d5e7;strokeColor=#9673a6;rounded=1;fillStyle=solid;" vertex="1" parent="1">
                    <mxGeometry x="32.5" y="550" width="290" height="120" as="geometry"/>
                </mxCell>
                <mxCell id="16" value="" style="edgeStyle=none;html=1;" edge="1" parent="1" source="13">
                    <mxGeometry relative="1" as="geometry">
                        <mxPoint x="190" y="890" as="targetPoint"/>
                    </mxGeometry>
                </mxCell>
                <mxCell id="13" value="&lt;div&gt;Check The Coulmns name and data types&lt;br&gt;&lt;br&gt;&lt;/div&gt;" style="whiteSpace=wrap;html=1;fillColor=#e1d5e7;strokeColor=#9673a6;rounded=1;fillStyle=solid;" vertex="1" parent="1">
                    <mxGeometry x="70" y="710" width="215" height="110" as="geometry"/>
                </mxCell>
                <mxCell id="20" value="" style="edgeStyle=none;html=1;" edge="1" parent="1" source="18" target="19">
                    <mxGeometry relative="1" as="geometry"/>
                </mxCell>
                <mxCell id="18" value="Asking For The Feature and Target&lt;div&gt;&lt;br/&gt;&lt;/div&gt;" style="whiteSpace=wrap;html=1;fillColor=#e1d5e7;strokeColor=#9673a6;rounded=1;fillStyle=solid;" vertex="1" parent="1">
                    <mxGeometry x="77.5" y="880" width="215" height="110" as="geometry"/>
                </mxCell>
                <mxCell id="22" value="" style="edgeStyle=none;html=1;" edge="1" parent="1" source="19" target="21">
                    <mxGeometry relative="1" as="geometry"/>
                </mxCell>
                <mxCell id="19" value="Pre-Processing&amp;nbsp;&lt;div&gt;Null Values Implementatio&lt;/div&gt;&lt;div&gt;Feature Encoding&lt;/div&gt;&lt;div&gt;Inverse Transform&amp;nbsp;&lt;/div&gt;&lt;div&gt;Feature Selection&lt;br&gt;&lt;/div&gt;" style="whiteSpace=wrap;html=1;fillColor=#e1d5e7;strokeColor=#9673a6;rounded=1;fillStyle=solid;" vertex="1" parent="1">
                    <mxGeometry x="70" y="1040" width="220" height="115" as="geometry"/>
                </mxCell>
                <mxCell id="24" value="" style="edgeStyle=none;html=1;" edge="1" parent="1" source="21" target="23">
                    <mxGeometry relative="1" as="geometry">
                        <Array as="points">
                            <mxPoint x="190" y="1370"/>
                        </Array>
                    </mxGeometry>
                </mxCell>
                <mxCell id="21" value="Select The Model" style="whiteSpace=wrap;html=1;fillColor=#e1d5e7;strokeColor=#9673a6;rounded=1;fillStyle=solid;" vertex="1" parent="1">
                    <mxGeometry x="90" y="1220" width="190" height="60" as="geometry"/>
                </mxCell>
                <mxCell id="26" value="" style="edgeStyle=none;html=1;" edge="1" parent="1" source="23" target="25">
                    <mxGeometry relative="1" as="geometry"/>
                </mxCell>
                <mxCell id="23" value="Add the Evalution matrics based on model&lt;div&gt;&lt;br/&gt;&lt;/div&gt;" style="whiteSpace=wrap;html=1;fillColor=#e1d5e7;strokeColor=#9673a6;rounded=1;fillStyle=solid;" vertex="1" parent="1">
                    <mxGeometry x="70" y="1360" width="240" height="60" as="geometry"/>
                </mxCell>
                <mxCell id="25" value="Select the Best Model&amp;nbsp;" style="whiteSpace=wrap;html=1;fillColor=#e1d5e7;strokeColor=#9673a6;rounded=1;fillStyle=solid;" vertex="1" parent="1">
                    <mxGeometry x="80" y="1490" width="230" height="60" as="geometry"/>
                </mxCell>
            </root>
        </mxGraphModel>
    </diagram>
</mxfile>